<svg xmlns="http://www.w3.org/2000/svg" viewBox="0 0 180 180" fill="none">
  <defs>
    <linearGradient id="bg" x1="0" y1="0" x2="1" y2="1"><stop offset="0" stop-color="#0c4a6e"/><stop offset="1" stop-color="#0ea5e9"/></linearGradient>
    <radialGradient id="face" cx="0.4" cy="0.35" r="0.8"><stop offset="0" stop-color="#e6b48a"/><stop offset="1" stop-color="#c28a60"/></radialGradient>
    <linearGradient id="body" x1="0" y1="0" x2="0" y2="1"><stop offset="0" stop-color="#92400e"/><stop offset="1" stop-color="#451a03"/></linearGradient>
    <radialGradient id="glow" cx="0.5" cy="0.4" r="0.6"><stop offset="0" stop-color="#ffffff" stop-opacity="0.35"/><stop offset="1" stop-color="#ffffff" stop-opacity="0"/></radialGradient>
  </defs>
  <rect width="180" height="180" rx="24" fill="url(#bg)"/>
  <circle cx="90" cy="80" r="70" fill="url(#glow)"/>
  <path d="M26 180c4-34 28-52 64-52s60 18 64 52z" fill="url(#body)"/>
  <path d="M74 126h32v14c0 8-7 14-16 14s-16-6-16-14z" fill="#c28a60"/>
  <path d="M54 80c0-26 14-40 36-40s36 14 36 40z" fill="#78350f"/>
  <ellipse cx="90" cy="82" rx="30" ry="36" fill="url(#face)"/>
  <path d="M58 70c10-12 54-12 64 0v-8c-10-14-54-14-64 0z" fill="#92400e"/>
  <ellipse cx="78" cy="84" rx="4.2" ry="5" fill="#fff"/><ellipse cx="102" cy="84" rx="4.2" ry="5" fill="#fff"/>
  <circle cx="78.6" cy="85" r="2.8" fill="#1e293b"/><circle cx="102.6" cy="85" r="2.8" fill="#1e293b"/>
  <circle cx="79.4" cy="84" r="0.9" fill="#fff"/><circle cx="103.4" cy="84" r="0.9" fill="#fff"/>
  <path d="M71 76q7-4 13 0M96 76q7-4 13 0" stroke="#451a03" stroke-width="2.4" stroke-linecap="round"/>
  <path d="M90 88v10q-3 2-1 3" stroke="#c28a60" stroke-width="2" stroke-linecap="round"/>
  <path d="M80 106q10 7 20 0" stroke="#7c2d12" stroke-width="2.4" stroke-linecap="round"/>
  <rect x="58" y="62" width="64" height="9" rx="4" fill="#451a03"/><circle cx="76" cy="66" r="12" fill="#bae6fd" opacity=".55" stroke="#1e293b" stroke-width="3"/><circle cx="104" cy="66" r="12" fill="#bae6fd" opacity=".55" stroke="#1e293b" stroke-width="3"/><path d="M60 138l30 12 30-12" stroke="#fde68a" stroke-width="4"/>
</svg>
