<svg xmlns="http://www.w3.org/2000/svg" viewBox="0 0 128 128" fill="none">
  <rect width="128" height="128" rx="24" fill="#ffffff"/>
  <rect x="16" y="16" width="96" height="96" rx="18" fill="#EFF6FF" stroke="#60A5FA" stroke-width="4"/>
  <rect x="28" y="28" width="24" height="24" rx="4" fill="#2563EB"/>
  <rect x="36" y="36" width="8" height="8" fill="#fff"/>
  <rect x="76" y="28" width="24" height="24" rx="4" fill="#2563EB"/>
  <rect x="84" y="36" width="8" height="8" fill="#fff"/>
  <rect x="28" y="76" width="24" height="24" rx="4" fill="#2563EB"/>
  <rect x="36" y="84" width="8" height="8" fill="#fff"/>
  <rect x="64" y="64" width="8" height="8" fill="#2563EB"/>
  <rect x="76" y="64" width="8" height="8" fill="#2563EB"/>
  <rect x="88" y="64" width="8" height="8" fill="#2563EB"/>
  <rect x="64" y="76" width="8" height="8" fill="#2563EB"/>
  <rect x="76" y="76" width="8" height="8" fill="#2563EB"/>
  <rect x="100" y="76" width="8" height="8" fill="#2563EB"/>
  <rect x="64" y="88" width="8" height="8" fill="#2563EB"/>
  <rect x="76" y="88" width="8" height="8" fill="#2563EB"/>
  <rect x="88" y="88" width="8" height="8" fill="#2563EB"/>
</svg>
